PathFileType	4	(X/Y/Z)	Kaydara	
DataRate	CameraRate	NumFrames	NumMarkers	Units	OrigDataRate	OrigDataStartFrame	OrigNumFrames	
240.00	240.00	4	72	mm	240.00	135	359	
Frame#	Time	Hips			RightUpLeg			RightLeg			RightFoot			RightFoot_End			LeftUpLeg			LeftLeg			LeftFoot			LeftFoot_End			Spine			Spine1			Spine2			Spine3			Neck			Head			Head_End			RightShoulder			RightArm			RightForeArm			RightHand			RightHandThumb1			RightHandThumb2			RightHandThumb3			RightHandThumb3_End			RightInHandIndex			RightHandIndex1			RightHandIndex2			RightHandIndex3			RightHandIndex3_End			RightInHandMiddle			RightHandMiddle1			RightHandMiddle2			RightHandMiddle3			RightHandMiddle3_End			RightInHandRing			RightHandRing1			RightHandRing2			RightHandRing3			RightHandRing3_End			RightInHandPinky			RightHandPinky1			RightHandPinky2			RightHandPinky3			RightHandPinky3_End			LeftShoulder			LeftArm			LeftForeArm			LeftHand			LeftHandThumb1			LeftHandThumb2			LeftHandThumb3			LeftHandThumb3_End			LeftInHandIndex			LeftHandIndex1			LeftHandIndex2			LeftHandIndex3			LeftHandIndex3_End			LeftInHandMiddle			LeftHandMiddle1			LeftHandMiddle2			LeftHandMiddle3			LeftHandMiddle3_End			LeftInHandRing			LeftHandRing1			LeftHandRing2			LeftHandRing3			LeftHandRing3_End			LeftInHandPinky			LeftHandPinky1			LeftHandPinky2			LeftHandPinky3			LeftHandPinky3_End			
		X1	Y1	Z1	X2	Y2	Z2	X3	Y3	Z3	X4	Y4	Z4	X5	Y5	Z5	X6	Y6	Z6	X7	Y7	Z7	X8	Y8	Z8	X9	Y9	Z9	X10	Y10	Z10	X11	Y11	Z11	X12	Y12	Z12	X13	Y13	Z13	X14	Y14	Z14	X15	Y15	Z15	X16	Y16	Z16	X17	Y17	Z17	X18	Y18	Z18	X19	Y19	Z19	X20	Y20	Z20	X21	Y21	Z21	X22	Y22	Z22	X23	Y23	Z23	X24	Y24	Z24	X25	Y25	Z25	X26	Y26	Z26	X27	Y27	Z27	X28	Y28	Z28	X29	Y29	Z29	X30	Y30	Z30	X31	Y31	Z31	X32	Y32	Z32	X33	Y33	Z33	X34	Y34	Z34	X35	Y35	Z35	X36	Y36	Z36	X37	Y37	Z37	X38	Y38	Z38	X39	Y39	Z39	X40	Y40	Z40	X41	Y41	Z41	X42	Y42	Z42	X43	Y43	Z43	X44	Y44	Z44	X45	Y45	Z45	X46	Y46	Z46	X47	Y47	Z47	X48	Y48	Z48	X49	Y49	Z49	X50	Y50	Z50	X51	Y51	Z51	X52	Y52	Z52	X53	Y53	Z53	X54	Y54	Z54	X55	Y55	Z55	X56	Y56	Z56	X57	Y57	Z57	X58	Y58	Z58	X59	Y59	Z59	X60	Y60	Z60	X61	Y61	Z61	X62	Y62	Z62	X63	Y63	Z63	X64	Y64	Z64	X65	Y65	Z65	X66	Y66	Z66	X67	Y67	Z67	X68	Y68	Z68	X69	Y69	Z69	X70	Y70	Z70	X71	Y71	Z71	X72	Y72	Z72	

135	0.558	6198.941	914.58397	126.699	6254.865870606734	898.1356618798818	53.85323105137686	6159.381934104977	501.46987066638656	-41.174109855359525	6142.412787897922	109.91389916823587	-115.98761965496287	5990.88858997684	33.16119551674747	-28.307049626055477	6157.5784862295895	904.9733323265739	210.82744364907816	6067.748377779158	502.98584168149284	286.625772336101	5995.115875612774	78.89198842469813	378.2434853477273	5873.493170654607	-3.3498225097545706	255.84133608881723	6131.130344440916	1031.516805108605	79.61711155382575	6068.664511610536	1087.7367441161748	30.799907457568242	6001.088482357664	1139.370337288032	-24.07342489052598	5933.641682438819	1177.5900539717504	-82.64271954141333	5860.388699948879	1218.8995007717463	-143.49958898351812	5791.913312160403	1256.7231017394674	-196.32490163636595	5651.1613151067195	1330.9622846307332	-204.30055247110363	5906.259495848298	1210.0932606499925	-145.6904940085046	5975.47539644806	1219.3017651526702	-254.95542216599685	6109.114318662232	990.61548638015	-312.1329797501598	6143.1478428742	952.2904820559812	-581.5324797668252	6160.663033385408	989.9313462842574	-599.1801606365804	6156.310661305555	1009.6389478137799	-631.7802798011102	6152.332673038834	1018.6227759329271	-656.906587827189	6148.206264174012	1022.0567916156257	-679.9266104384708	6161.096882954229	977.2146284619905	-609.1473412601196	6175.393458391464	994.1567172047517	-661.8125251643876	6173.4757470530185	1001.5486288356676	-700.2776210661315	6165.431890981254	1006.2769977202993	-719.1269347240645	6154.152363096917	1010.2802534718026	-731.3123935877375	6157.4595600347275	963.5223697260933	-613.9923167243608	6169.439964778505	972.6422815345319	-667.9804838624732	6166.806228754278	978.8412152787388	-710.42428063078	6156.841916344816	983.649845936987	-733.3911519487956	6144.37381881825	987.594569900474	-746.834052187836	6154.642115371783	953.4334947181258	-616.0792497927208	6163.275947930766	952.8987370583757	-666.2981205929085	6160.407104829927	956.3788136549358	-703.6882461048688	6150.491281260396	959.9959293922897	-726.0518805407886	6138.623844956391	963.2210417720519	-738.7912277158842	6150.057812428778	941.1804487941115	-616.8966339750363	6155.548217222046	933.1986650609239	-663.5044764350351	6152.3180715379285	932.9875851218192	-693.8437831416816	6144.634162046904	934.1757893135473	-710.3487652065703	6133.861834860763	936.1981492826685	-721.7447426203697	5863.006947291362	1200.3002968583926	-99.69253944466212	5806.40178694745	1125.7431346414753	-13.501276463377618	5980.740309971978	1020.7666180609865	-187.68690200646336	6080.695059196492	987.4169710063853	-439.12482315215027	6112.323696712372	1019.1070619331919	-441.37121872390617	6145.464792709049	1018.9170332946753	-444.58388110325745	6167.088569456732	1014.8081306743939	-450.35944333046876	6183.870078064891	1007.9808754063638	-458.20117179454707	6109.907316095752	1010.1784741821284	-455.47395509482817	6149.58641523277	1019.7387312655264	-488.3306580544846	6177.733434031077	1013.4715611592735	-504.7168916664519	6193.632514708111	1004.980782094303	-505.916187838971	6205.712990147144	994.8538441215919	-500.8461470016134	6104.592417354006	998.4159948585616	-463.6459138324767	6140.419233946038	1001.3821387906446	-500.1154198133976	6170.3039025454955	992.9442302074826	-518.9596649149277	6189.087582281929	981.9330025547657	-520.8689474701001	6202.112339863842	970.4792260333932	-515.5461776103822	6099.817849491179	989.9689403066557	-468.67640611326453	6127.7605438545015	985.607884958689	-506.006466041095	6152.904090928189	976.6129862653053	-523.3575528199931	6170.542340672477	965.1206363935438	-525.6911421397408	6182.561380645282	953.9383770192624	-520.9195020128149	6093.220851447959	979.1125971449001	-472.77048126047964	6114.771875434615	968.7822228426814	-509.86427467516376	6133.373688183155	959.0384824858651	-525.0401259864028	6145.497918495302	949.4267668529517	-527.3622794401341	6155.7182729682745	938.8137145460678	-523.4922113233746
136	0.563	6198.941	914.58397	126.699	6254.894936748447	898.1820661309057	53.86942795332445	6159.405303196043	501.5333035412046	-41.21700819160041	6142.38450497759	109.97978876026423	-116.0221698662956	5990.862179057934	33.23735254010725	-28.32939506093237	6157.547304234939	904.9224193711908	210.80343783753045	6067.708752425474	502.93363534435326	286.5820113739148	5995.100112444391	78.84591879509767	378.23939308671646	5873.475555766223	-3.390795837681942	255.83570523723014	6131.138505337037	1031.5348153094405	79.65105187597138	6068.696907126437	1087.8063385641303	30.860644370138566	6001.14888037757	1139.4998814504884	-23.99207620975106	5933.73143078751	1177.7799555168276	-82.5567948647431	5860.507580081237	1219.1505454517242	-143.408333037655	5792.0549158532895	1257.023291424563	-196.22863344728816	5651.246386344265	1331.1768354785168	-204.1573244808686	5906.409837296768	1210.4104217211302	-145.58845153758585	5975.905970847861	1220.029065792574	-254.93572938450436	6110.104167469252	991.3869023053776	-312.79398508524787	6144.406659560375	954.7911410360726	-584.1740920453692	6162.189641329917	992.8825977690351	-601.9826506428303	6157.8518242626415	1012.8544685094764	-634.9176526218264	6153.851333520897	1022.0021858091558	-660.2962794875216	6149.67824382131	1025.5555928203776	-683.5429943835536	6162.550189073791	980.155093059661	-612.025047293057	6176.940086600096	997.6075618714215	-665.1567261887926	6174.985137401542	1005.2473009029268	-703.9893789405075	6166.8813889215335	1010.047629581729	-723.0390004325632	6155.527504788463	1014.0550578117208	-735.3712307947441	6158.815989360596	966.385168834864	-616.9077924500529	6170.835046160056	975.9609113263093	-671.3713822001339	6168.147463219404	982.4182366198934	-714.2197806570592	6158.104552230509	987.3079075793034	-737.4300070043355	6145.5520129818415	991.2543886744236	-751.0343238776396	6155.928562585691	956.2294589364922	-619.0092874559928	6164.538751185487	956.0482998491257	-669.6662345795039	6161.609399656405	959.7405580152576	-707.4118675740888	6151.610552202875	963.4289217995411	-730.0117534285757	6139.660303005767	966.6524061527973	-742.9035913692784	6151.254258873988	943.8762467601566	-619.8316584202156	6156.670350517986	936.1607505805957	-666.8437949779017	6153.37066979829	936.097694178329	-697.4703244464927	6145.61600421196	937.3272811486011	-714.1488605998156	6134.764449122121	939.3421066559463	-725.680628694993	5863.072956572643	1200.4417635314146	-99.61477061284413	5806.290622435345	1125.4672826549033	-13.588699313843454	5981.304802947907	1021.235979644473	-188.43694504949258	6081.075495463501	989.2598082797305	-440.7633777253968	6112.98854160776	1021.3168360416403	-442.9207346554923	6146.244683560452	1021.2853687866052	-445.9914409109686	6167.9091537078375	1017.2738515840977	-451.69111384062126	6184.690859925525	1010.5166298499812	-459.48922610879566	6110.465325934646	1012.3985642170276	-457.1096876771785	6150.2332087701325	1022.3857431885422	-489.9950873604573	6178.397156907713	1016.2907672461365	-506.3369351837773	6194.307366950566	1007.815974545199	-507.4523745620741	6206.397461792802	997.6408410958759	-502.27497498229656	6105.037976369573	1000.5798311168462	-465.340060657344	6140.890578014902	1003.9319897737741	-501.86917113641243	6170.778538249788	995.673015921099	-520.6725167015601	6189.56835993833	984.6767737333494	-522.4842443963156	6202.600101212761	973.1681713914443	-517.0457621150451	6100.181911785658	992.0834068612646	-470.4118995997964	6128.077599901665	988.0291511255142	-507.83363688892746	6153.208455800314	979.1804288101607	-525.1566732416634	6170.844366513639	967.6973375580046	-527.4001979276416	6182.866057114303	956.4610657759467	-522.5216708295272	6093.48671525768	981.1478054513357	-474.5464220628627	6114.934837909145	971.054356027978	-511.7519620093392	6133.502415697515	961.4110571139819	-526.9167992499063	6145.613295372161	951.7980593847877	-529.1787967588444	6155.8292963026815	941.1325363759125	-525.217231113469
137	0.567	6198.941	914.58397	126.699	6254.9229321798575	898.2273529435738	53.88500080903378	6159.427829951506	501.59586116047166	-41.26175108512257	6142.355827502493	110.04489591918406	-116.05932118304409	5990.835360468323	33.31272765819769	-28.354364921037966	6157.517052902304	904.8725496897868	210.78006544083308	6067.669183066973	502.8824549582284	286.53771524396967	5995.083845701837	78.80059886548905	378.23308271633766	5873.457533617137	-3.4311404132644547	255.82784116068441	6131.14733817525	1031.5532098285476	79.68498309798642	6068.730432688362	1087.8765386076325	30.921069616882395	6001.210685565584	1139.6301510052053	-23.911243245340525	5933.82236055511	1177.970412051972	-82.47121446415849	5860.627425532929	1219.4019634046172	-143.317262243744	5792.19735052498	1257.323795774634	-196.13239927621333	5651.333240795802	1331.3935819131495	-204.01456011011234	5906.5603358588105	1210.7253001070112	-145.4875838809026	5976.329822178966	1220.7393670625593	-254.91878984130008	6111.052411459675	992.1288903950738	-313.4352769364581	6145.602978902797	957.2115824811378	-586.7540885162673	6163.648547317502	995.7399889061285	-604.7291802854743	6159.319434306928	1015.9672900396713	-637.99645747763	6155.292628950205	1025.273453375635	-663.62407926326	6151.0699049340865	1028.9423232763356	-687.0934253937409	6163.9363220329715	983.002512752549	-614.8423148669469	6178.413085660279	1000.9505039064989	-668.4349243854355	6176.416056320535	1008.8303264180294	-707.6290783857936	6168.249500278507	1013.6997979744458	-726.8757046662502	6156.818911302491	1017.7104144836223	-739.3522840420883	6160.106167484124	969.1575006393929	-619.7588181335763	6172.1580781500625	979.175975518204	-674.6902339334424	6169.411506556146	985.8836337472306	-717.9361122156504	6159.2865481791905	990.8511343992644	-741.3854619388615	6146.64703058357	994.7983870781109	-755.1484249024425	6157.1495786876585	958.9371314146429	-621.8721940921946	6165.731650537601	959.0996486200311	-672.9581149954957	6162.737463413139	962.9974855508217	-711.0525345206173	6152.652347416436	966.7542241352887	-733.88431732608	6140.616939112933	969.9752597798592	-746.925911795833	6152.386375086843	946.4868851199584	-622.6965347964644	6157.724741123951	939.030419254542	-670.1027924592184	6154.352320676598	939.1107995441336	-701.0104012789947	6146.524658263074	940.3800123597355	-717.8589469799989	6135.591869383819	942.3867714110929	-729.5238716650792	5863.140938775825	1200.5864665612442	-99.53630842742946	5806.1852446212415	1125.20494669648	-13.666652910153616	5981.84861087868	1021.6874824339917	-189.1701914630347	6081.423188317841	991.0356666971713	-442.3569904474652	6113.61853543618	1023.4481200372712	-444.434200964495	6146.990908094255	1023.5699938765446	-447.3654074887239	6168.697033788552	1019.6526161572413	-452.98928507271387	6185.479856990209	1012.9630551465466	-460.7424764414713	6110.988455970036	1014.5397888255142	-458.70463265475644	6150.84378134104	1024.9402663923418	-491.6180354034156	6179.025471033959	1019.0118251501965	-507.91372456083656	6194.948265923443	1010.5523375428284	-508.9448675323151	6207.049826029521	1000.3303585198352	-503.6601922761914	6105.449158084714	1002.6665170464178	-466.98898558889937	6141.326507960522	1006.3923292848582	-503.5746258510686	6171.2187189545675	998.3063898271045	-522.3345528614743	6190.0164735333665	987.324443277618	-524.0479148583216	6203.057235198308	975.762556374515	-518.493674702895	6100.511968927791	994.1222434846817	-472.09905846242503	6128.359994633183	990.3649151278041	-509.6070224831693	6153.479071600607	981.6575276971632	-526.8992202695298	6171.114411288973	970.1831896648507	-529.0515835260651	6183.140686722858	958.8944304680073	-524.0659776013945	6093.719176357968	983.1098377873294	-476.2704418878274	6115.0641094541415	973.2456362066955	-513.5805259166027	6133.598304746588	963.6994151880808	-528.7312157467527	6145.697182378132	954.0850150421254	-530.9318216046496	6155.910577114556	943.3685151385008	-526.8783377281374
138	0.571	6198.941	914.58397	126.699	6254.949836649803	898.2714975862715	53.899933774315244	6159.449505243853	501.6575123448751	-41.3083416476341	6142.326753268264	110.10918936481887	-116.09908870793595	5990.8081321090995	33.38728715045133	-28.381976248129828	6157.487752023624	904.8237483402671	210.75734386018544	6067.629679577932	502.83232666319833	286.49289611976815	5995.067062297702	78.75605055650709	378.22453534041114	5873.439092709727	-3.470836681555904	255.81772491856785	6131.15684588797	1031.5719883535755	79.71889909625175	6068.765092112085	1087.947327728941	30.98115862383382	6001.273901240126	1139.7611083667648	-23.83096862636953	5933.914470982454	1178.161360044055	-82.38603283908259	5860.748231478947	1219.6536645720898	-143.2264437813943	5792.3406087011135	1257.6245039786797	-196.0362773300485	5651.421894293789	1331.6124548552066	-203.8723555254089	5906.710970922607	1211.0377565645028	-145.38797012419423	5976.746794510232	1221.4322015562925	-254.90466733654642	6111.9582604477555	992.8407416658686	-314.0564772497205	6146.735700361409	959.5497257117748	-589.2711255260654	6165.038491618478	998.5010921355154	-607.4184620059426	6160.712142195817	1018.9747895239113	-641.0152986434782	6156.655164771655	1028.4338355485709	-666.8884906941856	6152.379829746048	1032.2141532230867	-690.5763012943473	6165.254064587921	985.7544686640792	-617.59777922646	6179.811140164411	1004.1827363744909	-671.6455906624908	6177.767141116499	1012.2947148918472	-711.1950292760879	6169.5348382518105	1017.2304629995782	-730.63526501504	6158.02517945414	1021.2432863380404	-743.2536998181503	6161.328927880975	971.8370069029888	-622.5439634153571	6173.407825906409	982.2847701479865	-677.9354129418923	6170.597079361075	989.2345117730928	-721.5714652842704	6160.386599080226	994.2765763937907	-745.2555914665616	6147.65755022686	998.2236203023515	-759.1743502698621	6158.304035369917	961.5542058084858	-624.6664974610856	6166.853489271549	962.0502097414025	-676.1720786092071	6163.790107846292	966.1468663499952	-714.6083953663704	6153.615457728147	969.9690587041573	-737.6676051957226	6141.492530629561	973.1868323907315	-750.8561449861263	6153.453080609247	949.0101352935649	-625.4897451875376	6158.710311585274	941.8052423067802	-673.2797301536517	6155.2619329795325	942.0243642733724	-704.4621284566309	6147.359023319138	943.3314193587695	-721.4770493116391	6136.342986033741	945.329591269968	-733.2724250668738	5863.210908643693	1200.7343846594008	-99.45719990954923	5806.0857381799915	1124.9563602312503	-13.735013722858282	5982.371161262625	1022.1207057240988	-189.88637697716996	6081.737643419893	992.7429707712146	-443.9047962781526	6114.213095703475	1025.499015633058	-445.9109137939677	6147.702907437044	1025.7688427882279	-448.7051603103697	6169.451683007621	1021.9422546139243	-454.25336714951743	6186.236582855459	1015.3179056224362	-461.96033504086	6111.47616459903	1016.6002481197081	-460.2580038898011	6151.4176095946505	1027.4000269234268	-493.19873034466997	6179.617905384774	1021.6322929104645	-509.4464920857133	6195.5547806504055	1013.1873940757214	-510.3929196027024	6207.6696901002815	1002.9199371830281	-505.0010808989059	6105.8254649350165	1004.6742045339713	-468.59182723845043	6141.726567830117	1008.7609723367816	-505.2308958139711	6171.6240516059615	1000.8419917689772	-523.9448797715578	6190.431581114235	989.8736126599599	-525.5590852533923	6203.483443039865	978.2600038363391	-519.8890713515991	6100.807553704719	996.0836472587985	-473.7369676657704	6128.607323610237	992.613108655642	-511.32563689930004	6153.715594580141	984.0420708197636	-528.5841930429223	6171.352183656343	972.5759483124641	-530.6443119900418	6183.385020198008	961.2362490329485	-525.5514606396879	6093.917804319748	984.9969614808504	-477.941564376867	6115.159338906658	975.3541273591052	-515.3488868258065	6133.661061647235	965.901520562112	-530.4822684046726	6145.749328352118	956.2855813887533	-532.6202495378639	6155.961903981845	945.5196223681539	-528.4744447741609
